<mxfile host="app.diagrams.net" agent="Mozilla/5.0 (Windows NT 10.0; Win64; x64; rv:132.0) Gecko/20100101 Firefox/132.0" version="24.9.0">
  <diagram name="Сторінка-1" id="6DXRS3csCj2I16RjvyHf">
    <mxGraphModel dx="604" dy="550" grid="1" gridSize="10" guides="1" tooltips="1" connect="1" arrows="1" fold="1" page="1" pageScale="1" pageWidth="827" pageHeight="1169" math="0" shadow="0">
      <root>
        <mxCell id="0" />
        <mxCell id="1" parent="0" />
        <mxCell id="u6bNEP01-yX-sxlxN0_T-1" value="End" style="ellipse;whiteSpace=wrap;html=1;" vertex="1" parent="1">
          <mxGeometry x="30" y="225" width="90" height="50" as="geometry" />
        </mxCell>
        <mxCell id="u6bNEP01-yX-sxlxN0_T-9" style="edgeStyle=orthogonalEdgeStyle;rounded=0;orthogonalLoop=1;jettySize=auto;html=1;exitX=0.5;exitY=1;exitDx=0;exitDy=0;entryX=0.5;entryY=0;entryDx=0;entryDy=0;" edge="1" parent="1" source="u6bNEP01-yX-sxlxN0_T-2" target="u6bNEP01-yX-sxlxN0_T-3">
          <mxGeometry relative="1" as="geometry" />
        </mxCell>
        <mxCell id="u6bNEP01-yX-sxlxN0_T-2" value="&lt;div&gt;initializing numerator, denominator, z, x, a, h_x, h_a&lt;br&gt;&lt;/div&gt;" style="rounded=0;whiteSpace=wrap;html=1;" vertex="1" parent="1">
          <mxGeometry x="130" y="140" width="140" height="50" as="geometry" />
        </mxCell>
        <mxCell id="u6bNEP01-yX-sxlxN0_T-10" value="T" style="edgeStyle=orthogonalEdgeStyle;rounded=0;orthogonalLoop=1;jettySize=auto;html=1;exitX=0.5;exitY=1;exitDx=0;exitDy=0;" edge="1" parent="1" source="u6bNEP01-yX-sxlxN0_T-3" target="u6bNEP01-yX-sxlxN0_T-4">
          <mxGeometry relative="1" as="geometry" />
        </mxCell>
        <mxCell id="u6bNEP01-yX-sxlxN0_T-16" value="F" style="edgeStyle=orthogonalEdgeStyle;rounded=0;orthogonalLoop=1;jettySize=auto;html=1;exitX=0;exitY=0.5;exitDx=0;exitDy=0;" edge="1" parent="1" source="u6bNEP01-yX-sxlxN0_T-3" target="u6bNEP01-yX-sxlxN0_T-1">
          <mxGeometry relative="1" as="geometry" />
        </mxCell>
        <mxCell id="u6bNEP01-yX-sxlxN0_T-3" value="x &amp;lt;= 4" style="rhombus;whiteSpace=wrap;html=1;" vertex="1" parent="1">
          <mxGeometry x="160" y="210" width="80" height="80" as="geometry" />
        </mxCell>
        <mxCell id="u6bNEP01-yX-sxlxN0_T-11" style="edgeStyle=orthogonalEdgeStyle;rounded=0;orthogonalLoop=1;jettySize=auto;html=1;exitX=0.5;exitY=1;exitDx=0;exitDy=0;entryX=0.5;entryY=0;entryDx=0;entryDy=0;" edge="1" parent="1" source="u6bNEP01-yX-sxlxN0_T-4" target="u6bNEP01-yX-sxlxN0_T-5">
          <mxGeometry relative="1" as="geometry" />
        </mxCell>
        <mxCell id="u6bNEP01-yX-sxlxN0_T-4" value="calculating numerator, denominator, z" style="rounded=0;whiteSpace=wrap;html=1;" vertex="1" parent="1">
          <mxGeometry x="140" y="320" width="120" height="60" as="geometry" />
        </mxCell>
        <mxCell id="u6bNEP01-yX-sxlxN0_T-12" style="edgeStyle=orthogonalEdgeStyle;rounded=0;orthogonalLoop=1;jettySize=auto;html=1;exitX=0.5;exitY=1;exitDx=0;exitDy=0;entryX=0.5;entryY=0;entryDx=0;entryDy=0;" edge="1" parent="1" source="u6bNEP01-yX-sxlxN0_T-5" target="u6bNEP01-yX-sxlxN0_T-6">
          <mxGeometry relative="1" as="geometry" />
        </mxCell>
        <mxCell id="u6bNEP01-yX-sxlxN0_T-5" value="output x, a, z" style="shape=parallelogram;perimeter=parallelogramPerimeter;whiteSpace=wrap;html=1;fixedSize=1;" vertex="1" parent="1">
          <mxGeometry x="140" y="400" width="120" height="60" as="geometry" />
        </mxCell>
        <mxCell id="u6bNEP01-yX-sxlxN0_T-13" style="edgeStyle=orthogonalEdgeStyle;rounded=0;orthogonalLoop=1;jettySize=auto;html=1;exitX=1;exitY=0.5;exitDx=0;exitDy=0;entryX=1;entryY=0.5;entryDx=0;entryDy=0;" edge="1" parent="1" source="u6bNEP01-yX-sxlxN0_T-6" target="u6bNEP01-yX-sxlxN0_T-3">
          <mxGeometry relative="1" as="geometry">
            <mxPoint x="300" y="240" as="targetPoint" />
            <Array as="points">
              <mxPoint x="290" y="510" />
              <mxPoint x="290" y="250" />
            </Array>
          </mxGeometry>
        </mxCell>
        <mxCell id="u6bNEP01-yX-sxlxN0_T-6" value="&lt;div&gt;x += h_x&lt;/div&gt;&lt;div&gt;a += h_a&lt;br&gt;&lt;/div&gt;" style="rounded=0;whiteSpace=wrap;html=1;" vertex="1" parent="1">
          <mxGeometry x="160" y="480" width="80" height="60" as="geometry" />
        </mxCell>
        <mxCell id="u6bNEP01-yX-sxlxN0_T-17" style="edgeStyle=orthogonalEdgeStyle;rounded=0;orthogonalLoop=1;jettySize=auto;html=1;exitX=0.5;exitY=1;exitDx=0;exitDy=0;entryX=0.5;entryY=0;entryDx=0;entryDy=0;" edge="1" parent="1" source="u6bNEP01-yX-sxlxN0_T-15" target="u6bNEP01-yX-sxlxN0_T-2">
          <mxGeometry relative="1" as="geometry" />
        </mxCell>
        <mxCell id="u6bNEP01-yX-sxlxN0_T-15" value="Start" style="ellipse;whiteSpace=wrap;html=1;" vertex="1" parent="1">
          <mxGeometry x="155" y="70" width="90" height="50" as="geometry" />
        </mxCell>
      </root>
    </mxGraphModel>
  </diagram>
</mxfile>
